<svg id="Layer_1" data-name="Layer 1" xmlns="http://www.w3.org/2000/svg" viewBox="0 0 808.6 131.09"><path d="M507.64,471.19V426.08c.64.16,1.12.25,1.58.4,6.92,2.29,13.84,4.61,20.78,6.86a1.9,1.9,0,0,1,1.61,2.12c-.05,25.1,0,50.2,0,75.3,0,12.56-4.23,23.55-13.07,32.46-10,10.1-22.34,14.51-36.55,13.32a43.4,43.4,0,0,1-30.54-15.68c-8.87-10.5-12.43-22.74-10.26-36.34,2.57-16.13,11.5-27.66,26.28-34.56,8.07-3.77,16.64-4.61,25.44-3.43a47.32,47.32,0,0,1,13.36,4.08C506.63,470.8,507,471,507.64,471.19ZM486,532.89a21.6,21.6,0,0,0,21.63-21.65,21.63,21.63,0,0,0-43.25,0A21.6,21.6,0,0,0,486,532.89Z" transform="translate(-140.16 -425.88)"/><path d="M707.93,425.88v45.35c.88-.44,1.51-.77,2.15-1.07,17.31-8.11,39.4-4.61,52.66,10,9.09,10,13.29,21.74,12.12,35.14a43.28,43.28,0,0,1-14.46,29.18C750,553.91,737.85,558.27,724,556.29c-18.93-2.71-31.64-13.51-37.91-31.59a43.52,43.52,0,0,1-2-14.33q0-37.49,0-75a1.94,1.94,0,0,1,1.62-2.25c6.79-2.17,13.53-4.47,20.29-6.71C706.52,426.26,707.06,426.13,707.93,425.88Zm21.67,107A21.61,21.61,0,1,0,708,511.37,21.69,21.69,0,0,0,729.6,532.89Z" transform="translate(-140.16 -425.88)"/><path d="M387.65,465.93c.83-.05,1.39-.11,2-.12,6.68,0,13.36,0,20,0,1.47,0,2,.4,2,1.93q-.06,43.14,0,86.27c0,1,0,1.76-1.38,1.75-7.26-.06-14.51,0-21.76,0a3.86,3.86,0,0,1-.66-.13c-.05-1-.1-2.06-.16-3.42q-19.79,9.32-39.51.64A43.45,43.45,0,0,1,327.08,533,45.78,45.78,0,0,1,332,482.44c10.81-13.2,32.46-22.37,55.63-11.7Zm1.14,45.72C388.88,500,379.28,490,368,489.87c-12.31-.12-22.43,9.33-22.45,21s8.62,22.15,21.74,22.1C379.06,533,388.41,524.43,388.79,511.65Z" transform="translate(-140.16 -425.88)"/><path d="M626.64,470.58c0-1.19.05-2.26,0-3.32s.33-1.46,1.37-1.46q10.62,0,21.24,0c.92,0,1.4.35,1.34,1.32,0,.4,0,.8,0,1.2q0,42.53,0,85.05c0,2.32,0,2.32-2.29,2.32H626.73v-3.52c-14.85,6.66-29.27,6.46-43.36-1.35a41.31,41.31,0,0,1-17.57-18.41c-8.48-17.55-7.31-34.76,5.19-49.66C585.93,465,605.17,462.08,626.64,470.58Zm1.06,40.9c0-11.78-9.57-21.59-21.12-21.61-12.3,0-22,9.4-22.05,21.38-.07,11.09,8.36,21.82,21.68,21.77C618,533,627.58,524.27,627.7,511.48Z" transform="translate(-140.16 -425.88)"/><path d="M298.94,523H236.15l-.31.48c1,1.22,2,2.54,3.14,3.65,8.57,8.22,22.19,7.92,29.94.29.63-.62,1.12-1,2-.22,5.15,4.93,10.34,9.82,15.52,14.73a3.61,3.61,0,0,1,.35.67c-2.14,1.77-4.21,3.81-6.58,5.41-9.19,6.21-19.35,9.21-30.46,8a44.21,44.21,0,0,1-28.27-13.88c-10.09-10.72-13.82-23.5-11.65-38C212,489.5,220,478.5,233,471.78c16.31-8.45,32.47-7.34,47.66,3.36A42,42,0,0,1,297,497.92a51.48,51.48,0,0,1,1.88,11.25C299.18,513.64,298.94,518.15,298.94,523Zm-26.66-23.27c-1.92-4.83-10.54-11.06-19.55-10.38-6.81.51-15.43,5.65-16.6,10.38Z" transform="translate(-140.16 -425.88)"/><path d="M948.67,523H885.9l-.3.45a44.59,44.59,0,0,0,3,3.54,21.8,21.8,0,0,0,29.94.53c.66-.59,1.15-1.23,2.11-.31,5.11,4.89,10.27,9.74,15.41,14.6a5.43,5.43,0,0,1,.51.81c-2.48,2-4.86,4.18-7.54,5.94-9,5.87-18.87,8.61-29.6,7.44A44.51,44.51,0,0,1,872,543a42.87,42.87,0,0,1-13-32.37c.37-17.5,8.65-30.4,23.71-38.91a41.66,41.66,0,0,1,24.61-5.1c16.08,1.43,27.94,9.4,36,23.18a39.89,39.89,0,0,1,5.29,17.89C948.91,512.66,948.67,517.68,948.67,523ZM885.8,499.66h36.29c-2.46-5.21-10.82-10.73-19.15-10.35C896.15,489.61,887.82,494.48,885.8,499.66Z" transform="translate(-140.16 -425.88)"/><path d="M805.84,555.54v-2.16q0-58.17,0-116.35a2.36,2.36,0,0,1,2-2.72c6.79-2.14,13.54-4.42,20.31-6.65.53-.18,1.07-.32,1.71-.51V555.54Z" transform="translate(-140.16 -425.88)"/><path d="M191.92,464.73c0,.64.1,1.14.1,1.64,0,6.73,0,13.46,0,20.19,0,1.48-.45,2-1.93,2a27.76,27.76,0,0,0-25.66,22.89,35.83,35.83,0,0,0-.49,6c-.05,12,0,24.07,0,36.11v2h-23.6a7.55,7.55,0,0,1-.19-1.23c0-13.34,0-26.69.12-40a46.16,46.16,0,0,1,6-22.22c5.76-10.46,14-18.41,25-23.14A51.8,51.8,0,0,1,190,464.65C190.61,464.63,191.22,464.7,191.92,464.73Z" transform="translate(-140.16 -425.88)"/></svg>